<?xml version="1.0" encoding="UTF-8" standalone="no"?>
<svg width="882px" height="194px" viewBox="0 0 882 194" version="1.1" xmlns="http://www.w3.org/2000/svg" xmlns:xlink="http://www.w3.org/1999/xlink" xmlns:sketch="http://www.bohemiancoding.com/sketch/ns">
    <!-- Generator: Sketch 3.3 (11970) - http://www.bohemiancoding.com/sketch -->
    <title>Header</title>
    <desc>Created with Sketch.</desc>
    <defs>
        <rect id="path-1" x="0" y="0" width="878" height="16"></rect>
    </defs>
    <g id="Page-1" stroke="none" stroke-width="1" fill="none" fill-rule="evenodd" sketch:type="MSPage">
        <g id="LandDesk" sketch:type="MSArtboardGroup" transform="translate(-229.000000, -633.000000)">
            <g id="Header" sketch:type="MSLayerGroup" transform="translate(210.000000, 633.000000)">
                <g id="PUDDllEE" fill="#FFFFFF">
                    <text sketch:type="MSTextLayer" font-family="Muli" font-size="200" font-style="" font-weight="300">
                        <tspan x="0" y="191">PUDDllEE</tspan>
                    </text>
                    <g id="Holes" transform="translate(22.000000, 51.000000)" sketch:type="MSShapeGroup">
                        <path d="M280.48876,5.60726467 L279.353026,133.765138 L344.778608,129.713014 L378.05499,102.207315 L383.519155,47.0828107 L363.726293,16.5692771 L319.912973,3.99246338 L280.48876,5.60726467 Z" id="Path-8"></path>
                        <path d="M2.59562281,79.2328615 L0.909541876,1.56204571 C0.909541876,1.56204571 30.0362601,0.265549778 44.562454,1.56204571 C54.0755185,2.41110841 73.0273168,7.99872162 73.0273168,7.99872162 C73.0273168,7.99872162 83.1216711,17.0142528 86.5193823,22.4701316 C89.3925578,27.0837368 91.8399771,38.2071734 91.8399771,38.2071734 L78.844425,68.7497606 C78.844425,68.7497606 69.2371435,75.1183694 63.2603529,76.9460151 C57.8098198,78.6127363 44.562454,79.2328615 44.562454,79.2328615 L2.59562281,79.2328615 Z" id="Path-7"></path>
                        <path d="M448.599486,0.991187966 C441.311063,0.953888808 426.388168,2.11410265 426.388168,2.11410265 L427.369223,136.753598 L469.162912,135.365194 C469.162912,135.365194 489.577584,133.766561 497.820569,130.326322 C506.402909,126.744453 519.638887,114.298873 519.638887,114.298873 C519.638887,114.298873 532.277443,99.3021067 535.445897,92.1207408 C538.035839,86.2505833 536.914074,75.1443025 536.914074,75.1443025 C536.914074,75.1443025 537.332396,57.1620939 535.445897,49.8687343 C532.92595,40.126413 523.694739,24.03726 523.694739,24.03726 C523.694739,24.03726 510.076695,12.9211752 502.751485,10.112091 C494.146368,6.8121862 475.903757,5.71029293 475.903757,5.71029293 C475.903757,5.71029293 455.012563,1.02400746 448.599486,0.991187966 Z" id="Path-9"></path>
                    </g>
                </g>
                <g id="line" transform="translate(20.000000, 0.000000)">
                    <g id="Rectangle-7">
                        <mask id="mask-2" sketch:name="Mask" fill="white">
                            <use xlink:href="#path-1"></use>
                        </mask>
                        <use id="Mask" fill="#2B49FF" sketch:type="MSShapeGroup" xlink:href="#path-1"></use>
                        <rect id="Rectangle-29" fill-opacity="0.5" fill="#FFFFFF" sketch:type="MSShapeGroup" mask="url(#mask-2)" x="332" y="-5" width="2" height="25"></rect>
                    </g>
                </g>
            </g>
        </g>
    </g>
</svg>
